<?xml version="1.0" encoding="UTF-8"?>
<svg version="1.1" xmlns="http://www.w3.org/2000/svg" width="512" height="512">
<path d="M0 0 C0.99868909 -0.00297112 1.99737819 -0.00594224 3.02633059 -0.0090034 C6.35908455 -0.01764635 9.69180239 -0.01919493 13.02456665 -0.02069092 C15.42015662 -0.02532233 17.81574585 -0.03034742 20.21133423 -0.03573608 C26.71186048 -0.04883371 33.21237985 -0.05533771 39.71291685 -0.05974674 C43.78023756 -0.06251761 47.84755591 -0.06675656 51.91487503 -0.07125092 C63.19913521 -0.08343966 74.48339352 -0.09373856 85.76766014 -0.09712601 C86.48888342 -0.09734557 87.2101067 -0.09756514 87.95318524 -0.09779136 C88.67603937 -0.09800964 89.39889351 -0.09822791 90.14365232 -0.09845281 C91.60818887 -0.09889626 93.07272542 -0.09934282 94.53726196 -0.09979248 C95.2637076 -0.10001391 95.99015323 -0.10023534 96.73861237 -0.10046348 C108.48858398 -0.10440477 120.23849332 -0.12184006 131.98844092 -0.145152 C144.08217627 -0.16895013 156.17588049 -0.18133175 168.26963961 -0.18249393 C175.04751456 -0.18340615 181.82530843 -0.18904286 188.60316086 -0.20731354 C194.98736375 -0.22388814 201.37141365 -0.2259044 207.75563049 -0.21717453 C210.08628883 -0.21640908 212.41695571 -0.22068117 214.74759293 -0.23063278 C258.07962913 -0.40465983 296.27158717 14.14096113 327.37026978 44.66778564 C335.82133285 53.25263113 342.72223089 62.77794547 348.81997681 73.14044189 C349.16657349 73.72519287 349.51317017 74.30994385 349.87026978 74.91241455 C362.01010239 95.68527045 368.98307225 119.22610484 368.9604187 143.32046509 C368.96487538 144.81849873 368.96487538 144.81849873 368.9694221 146.34679568 C368.97806505 149.67954963 368.97961363 153.01226748 368.98110962 156.34503174 C368.98574103 158.7406217 368.99076612 161.13621093 368.99615479 163.53179932 C369.00925242 170.03232557 369.01575642 176.53284494 369.02016544 183.03338194 C369.02293631 187.10070264 369.02717527 191.168021 369.03166962 195.23534012 C369.04385836 206.5196003 369.05415726 217.80385861 369.05754471 229.08812523 C369.05776427 229.80934851 369.05798384 230.53057179 369.05821006 231.27365033 C369.05842834 231.99650446 369.05864662 232.7193586 369.05887151 233.46411741 C369.05931496 234.92865396 369.05976152 236.3931905 369.06021118 237.85772705 C369.06043261 238.58417268 369.06065404 239.31061832 369.06088218 240.05907746 C369.06482347 251.80904907 369.08225876 263.55895841 369.1055707 275.308906 C369.12936883 287.40264135 369.14175045 299.49634558 369.14291263 311.5901047 C369.14382485 318.36797965 369.14946156 325.14577352 369.16773224 331.92362595 C369.18430684 338.30782883 369.1863231 344.69187874 369.17759323 351.07609558 C369.17682778 353.40675392 369.18109987 355.7374208 369.19105148 358.06805801 C369.36507853 401.40009422 354.81945758 439.59205226 324.29263306 470.69073486 C315.70778757 479.14179794 306.18247323 486.04269597 295.81997681 492.14044189 C295.23522583 492.48703857 294.65047485 492.83363525 294.04800415 493.19073486 C273.27514825 505.33056748 249.73431386 512.30353734 225.63995361 512.28088379 C224.64126452 512.28385491 223.64257542 512.28682603 222.61362302 512.28988719 C219.28086907 512.29853014 215.94815122 512.30007872 212.61538696 512.30157471 C210.219797 512.30620611 207.82420777 512.31123121 205.42861938 512.31661987 C198.92809313 512.3297175 192.42757376 512.3362215 185.92703676 512.34063053 C181.85971606 512.3434014 177.7923977 512.34764035 173.72507858 512.3521347 C162.4408184 512.36432345 151.15656009 512.37462235 139.87229347 512.3780098 C138.79045855 512.37833915 138.79045855 512.37833915 137.68676838 512.37867515 C136.96391424 512.37889343 136.2410601 512.3791117 135.49630129 512.3793366 C134.03176474 512.37978005 132.5672282 512.38022661 131.10269165 512.38067627 C130.37624602 512.3808977 129.64980038 512.38111913 128.90134124 512.38134727 C117.15136963 512.38528855 105.40146029 512.40272385 93.6515127 512.42603579 C81.55777735 512.44983392 69.46407312 512.46221554 57.370314 512.46337771 C50.59243905 512.46428994 43.81464518 512.46992664 37.03679276 512.48819733 C30.65258987 512.50477193 24.26853996 512.50678819 17.88432312 512.49805832 C15.55366478 512.49729287 13.2229979 512.50156496 10.89236069 512.51151657 C-32.43967552 512.68554362 -70.63163355 498.13992266 -101.73031616 467.61309814 C-110.18137924 459.02825266 -117.08227727 449.50293832 -123.18002319 439.14044189 C-123.52661987 438.55569092 -123.87321655 437.97093994 -124.23031616 437.36846924 C-139.15366328 411.83265263 -143.96888288 384.22270078 -143.82699585 354.93341064 C-143.83379502 352.5269607 -143.84271086 350.12051597 -143.85354614 347.71408081 C-143.87607264 341.2594098 -143.86761464 334.80514453 -143.85165071 328.35046768 C-143.84267249 324.30057544 -143.84447118 320.25073325 -143.84910202 316.20083618 C-143.84986819 315.52315191 -143.85063435 314.84546765 -143.85142373 314.14724749 C-143.85302277 312.7694531 -143.85464384 311.39165874 -143.85628669 310.0138644 C-143.87045789 297.17115175 -143.8542884 284.32861914 -143.82728486 271.48593605 C-143.80495393 260.5272569 -143.80883651 249.56884283 -143.83187866 238.61016846 C-143.85879081 225.80542442 -143.86908541 213.00083715 -143.85381734 200.19606876 C-143.85222502 198.82406174 -143.85065316 197.45205468 -143.84910202 196.08004761 C-143.84833064 195.40544076 -143.84755927 194.73083391 -143.84676451 194.03578442 C-143.84249339 189.33985864 -143.8498857 184.64406472 -143.86149979 179.94815063 C-143.87611257 173.59803788 -143.86562045 167.2484178 -143.8370285 160.89835739 C-143.83050645 158.58998806 -143.83215941 156.2815761 -143.84334183 153.97322464 C-144.02984188 111.50758545 -129.37532516 73.193066 -99.75082397 42.66778564 C-73.70742027 16.77431011 -36.88675524 -0.03468097 0 0 Z " fill="#1E88E5" transform="translate(143.18002319335938,-0.14044189453125)"/>
<path d="M0 0 C0.72453536 -0.00523668 1.44907073 -0.01047336 2.19556171 -0.01586872 C4.60030592 -0.03075616 7.00483524 -0.03157137 9.40962219 -0.03224182 C11.14338535 -0.03987096 12.87714515 -0.04829974 14.61090088 -0.0574646 C19.3053718 -0.07934348 23.9997776 -0.08819972 28.69429374 -0.09329104 C31.63256643 -0.09694278 34.57082228 -0.10318711 37.50908852 -0.11029243 C47.77509429 -0.13476504 58.04104969 -0.14783386 68.30708313 -0.15138245 C77.85129312 -0.15501486 87.395181 -0.18489488 96.93929261 -0.22678703 C105.15361295 -0.26156833 113.36782695 -0.27693225 121.58222038 -0.27762848 C126.47929233 -0.27841869 131.37603588 -0.28703904 136.27303123 -0.31562614 C140.88366104 -0.34194119 145.4936933 -0.34393764 150.1043644 -0.3279705 C151.78727149 -0.32616659 153.47021403 -0.33275016 155.15304565 -0.34878922 C167.77936807 -0.46170057 179.43777029 1.13145297 189.5905304 9.48118591 C196.61690734 16.5693332 201.71113956 25.2318931 201.70776367 35.36436462 C201.69227982 36.06678284 201.67679596 36.76920105 201.6608429 37.49290466 C201.65659805 38.23625061 201.65235321 38.97959656 201.64797974 39.74546814 C201.63136496 42.08875324 201.59374869 44.43113543 201.55537415 46.77415466 C201.54030493 48.37570462 201.52662047 49.97726825 201.51435852 51.57884216 C201.48151841 55.4776205 201.42985978 59.37573523 201.36787415 63.27415466 C214.15089528 55.65834012 226.84489159 47.91117521 239.48554993 40.06175232 C252.84411625 31.77686136 266.22720601 23.52969466 279.68037415 15.39915466 C280.49191956 14.90536316 281.30346497 14.41157166 282.13960266 13.90281677 C292.65718455 7.57649408 302.5270467 6.70221756 314.64131165 8.85618591 C323.99519529 11.79100041 331.3633261 18.72660451 336.3327179 27.05931091 C336.84512024 28.15565857 336.84512024 28.15565857 337.36787415 29.27415466 C337.87621796 30.3123082 338.38456177 31.35046173 338.90830994 32.42007446 C341.35147651 39.04885048 340.78565797 46.18978219 340.75605774 53.15428162 C340.76012755 54.76321264 340.76547172 56.37214087 340.77198792 57.98106384 C340.78562198 62.33456583 340.7803782 66.68785363 340.77085066 71.04135919 C340.76322983 75.6099454 340.77030675 80.17851386 340.77500916 84.74710083 C340.78046132 92.42110975 340.77329099 100.09503196 340.75898743 107.76902771 C340.74267941 116.62020278 340.74793814 125.47117031 340.76446664 134.32234031 C340.77811777 141.9396136 340.77998297 149.55682471 340.77215064 157.1741063 C340.76749176 161.71554503 340.76679949 166.25688652 340.7767601 170.79831886 C340.7854798 175.07233676 340.77931731 179.34608953 340.76207733 183.62007904 C340.75813829 185.18125406 340.7592018 186.74245171 340.76586533 188.30361748 C340.82071442 202.4692547 339.23398242 213.80527947 329.32881165 224.46946716 C320.69088925 232.74111723 312.33318542 235.0461988 300.58979797 234.9384613 C292.29740289 234.55004549 286.31591029 231.686835 279.36787415 227.27415466 C277.57171408 226.16882539 275.77477271 225.06476519 273.97724915 223.96165466 C269.85649067 221.41566302 265.75553322 218.84066493 261.66474915 216.24681091 C255.71182925 212.47717849 249.70735158 208.79889845 243.68037415 205.14915466 C235.27126311 200.0507797 226.89298844 194.90571687 218.54292297 189.71116638 C212.85162208 186.17490234 207.12249747 182.70639002 201.36787415 179.27415466 C201.38882141 180.18068787 201.40976868 181.08722107 201.43135071 182.02122498 C201.50026139 185.44320711 201.55002476 188.86443302 201.58760071 192.28684998 C201.60749391 193.75702176 201.63461886 195.22711681 201.66963196 196.69700623 C201.94414738 208.53346544 201.07938211 219.96700384 193.18037415 229.46556091 C182.90012583 239.72365352 170.91597541 242.77441321 156.77548218 242.81626892 C155.16630354 242.8084949 153.55712687 242.80030243 151.94795227 242.79173279 C150.2218263 242.79716384 148.49570497 242.80429198 146.76959229 242.81297302 C142.11456966 242.83109252 137.45990461 242.82418622 132.80487633 242.81145668 C127.91379772 242.80126968 123.02274801 242.81073809 118.13166809 242.81700134 C109.92079724 242.82426124 101.7100707 242.8147337 93.4992218 242.79563904 C84.03104794 242.77387352 74.56321872 242.78092606 65.0950532 242.80294466 C56.93924735 242.82114604 48.78354474 242.82363389 40.62772512 242.81318998 C35.76826937 242.80698103 30.90897516 242.8060474 26.04953003 242.81933594 C21.47909115 242.83096306 16.90909295 242.82274453 12.33870125 242.79975891 C10.66990449 242.79450824 9.0010701 242.79592249 7.33228874 242.80480957 C-5.77819841 242.86814694 -17.6285959 241.56314677 -27.63212585 232.27415466 C-28.55638367 231.42917419 -28.55638367 231.42917419 -29.49931335 230.56712341 C-39.76482626 220.10334953 -40.36877862 207.13066899 -40.27909851 193.3735199 C-40.28588852 191.60783491 -40.29479937 189.84215702 -40.3056488 188.07649231 C-40.32828271 183.31816422 -40.31967259 178.56038317 -40.30375338 173.80204654 C-40.29101332 168.80152941 -40.30285667 163.80105626 -40.3106842 158.80053711 C-40.31975645 150.40729949 -40.30785582 142.01428254 -40.28398132 133.62107849 C-40.25676589 123.94207983 -40.26559709 114.2636078 -40.29311335 104.58462185 C-40.31586211 96.24619136 -40.31897664 87.90791865 -40.30592 79.56946713 C-40.29815827 74.60156669 -40.29699329 69.63391317 -40.31360245 64.66602898 C-40.32813253 59.99453536 -40.31787086 55.3237156 -40.28913116 50.65229416 C-40.28256607 48.94641166 -40.28433881 47.24047164 -40.29544449 45.53461266 C-40.37757938 31.62777554 -38.06315549 20.7707916 -28.09306335 10.46946716 C-19.75696211 3.03313558 -11.09628277 0.04005307 0 0 Z " fill="#FEFEFE" transform="translate(105.63212585449219,134.72584533691406)"/>
</svg>
